<?xml version="1.0" encoding="UTF-8" standalone="no"?>
<svg
   width="64"
   height="64"
   version="1.1"
   id="svg8"
   sodipodi:docname="folder-templates.svg"
   inkscape:export-filename="folder-templates.svg"
   inkscape:export-xdpi="96"
   inkscape:export-ydpi="96"
   xmlns:inkscape="http://www.inkscape.org/namespaces/inkscape"
   xmlns:sodipodi="http://sodipodi.sourceforge.net/DTD/sodipodi-0.dtd"
   xmlns="http://www.w3.org/2000/svg"
   xmlns:svg="http://www.w3.org/2000/svg">
  <sodipodi:namedview
     id="namedview8"
     pagecolor="#505050"
     bordercolor="#eeeeee"
     borderopacity="1"
     inkscape:showpageshadow="0"
     inkscape:pageopacity="0"
     inkscape:pagecheckerboard="0"
     inkscape:deskcolor="#505050">
    <inkscape:page
       x="0"
       y="0"
       width="64"
       height="64"
       id="page2"
       margin="0"
       bleed="0" />
  </sodipodi:namedview>
  <defs
     id="defs4">
    <linearGradient
       id="b"
       x1="26.655001"
       x2="26.655001"
       y1="17.999001"
       y2="49.215"
       gradientTransform="matrix(1.011,0,0,0.99098,-480.76,-156.3)"
       gradientUnits="userSpaceOnUse">
      <stop
         offset="0"
         stop-color="#3ab8fb"
         id="stop1" />
      <stop
         offset="1"
         stop-color="#60c4fb"
         id="stop2" />
    </linearGradient>
    <linearGradient
       id="a"
       x1="11.572"
       x2="11.572"
       y1="17.999001"
       y2="8.9960003"
       gradientTransform="translate(-61.219,-1.442)"
       gradientUnits="userSpaceOnUse">
      <stop
         offset="0"
         stop-color="#009ef8"
         id="stop3" />
      <stop
         offset="1"
         stop-color="#27affa"
         id="stop4" />
    </linearGradient>
  </defs>
  <path
     fill="url(#a)"
     d="m 8.35,8.996 h 10.186 c 2.835,0 2.96,0.11 5.829,2.381 2.634,1.988 3.583,1.625 7.045,1.625 H 55.646 A 4.33,4.33 0 0 1 60,17.352 V 50.646 A 4.347,4.347 0 0 1 55.646,55 H 8.351 A 4.347,4.347 0 0 1 4.001,50.646 V 13.35 a 4.347,4.347 0 0 1 4.35,-4.354 z"
     color="#60c0f0"
     style="fill:url(#a);-inkscape-stroke:none;paint-order:markers fill stroke"
     id="path4" />
  <rect
     width="56"
     height="38"
     x="4"
     y="17.000999"
     fill="url(#b)"
     rx="4.3540001"
     ry="4.2670002"
     style="color:#60c0f0;fill:url(#b)"
     id="rect4" />
  <path
     fill="#ffffff"
     d="m 8.353,17.001 c -2.412,0 -4.354,1.901 -4.354,4.263 v 1.002 c 0,-2.362 1.942,-4.267 4.354,-4.267 h 47.294 c 2.411,0 4.354,1.905 4.354,4.267 v -1.002 c 0,-2.362 -1.943,-4.263 -4.354,-4.263 z"
     opacity="0.08"
     id="path5" />
  <path
     d="M 8.35,8.996 A 4.347,4.347 0 0 0 4,13.35 V 50.647 A 4.347,4.347 0 0 0 8.352,55 H 55.647 A 4.345,4.345 0 0 0 60,50.647 V 17.354 A 4.33,4.33 0 0 0 55.647,13.002 H 31.41 c -3.463,0 -4.41,0.363 -7.045,-1.625 -2.869,-2.272 -2.994,-2.38 -5.828,-2.38 H 8.352 Z M 8.348,9.295 8.35,9.297 h 10.187 c 1.413,0 2.1,0.028 2.785,0.314 0.684,0.287 1.42,0.866 2.855,2.002 l 0.006,0.004 c 1.338,1.01 2.296,1.45 3.346,1.615 1.05,0.165 2.16,0.07 3.88,0.07 h 24.239 a 4.027,4.027 0 0 1 4.053,4.05 v 33.295 a 4.04,4.04 0 0 1 -4.055,4.052 H 8.35 A 4.04,4.04 0 0 1 4.3,50.646 V 13.35 A 4.044,4.044 0 0 1 8.347,9.296 Z"
     color="#60c0f0"
     opacity="0.1"
     style="-inkscape-stroke:none;paint-order:markers fill stroke"
     id="path6" />
  <path
     d="M 8.354,16.701 A 4.65,4.65 0 0 0 4,19.661 v 1.606 c 0,-2.364 1.941,-4.265 4.354,-4.265 h 47.293 c 2.412,0 4.353,1.901 4.353,4.265 v -1.601 a 4.64,4.64 0 0 0 -4.353,-2.965 z"
     color="#60c0f0"
     opacity="0.1"
     style="-inkscape-stroke:none"
     id="path7" />
  <path
     d="m 29.908,24.972 a 1.535,1.535 0 0 0 -1.285,2.302 l 1.568,2.714 -5.019,8.678 h -3.908 a 1.535,1.535 0 1 0 0,3.069 h 13.951 c 0.673,-1.255 -0.193,-3.07 -1.735,-3.07 H 28.718 L 35.302,27.27 a 1.535,1.535 0 1 0 -2.653,-1.531 c 0,0 -0.34,1.18 -0.68,1.18 -0.34,0 -0.685,-1.18 -0.685,-1.18 a 1.54,1.54 0 0 0 -1.372,-0.767 z m 4.32,5.87 c -0.907,0.748 -1.825,2.974 -0.54,5.197 l 5.669,9.827 a 1.536,1.536 0 0 0 2.66,-1.535 l -1.5,-2.596 h 2.223 a 1.535,1.535 0 1 0 0,-3.07 h -4 L 34.224,30.842 Z M 24.25,42.219 a 1.38,1.38 0 0 0 -1.142,0.68 l -1.103,1.913 a 1.436,1.436 0 0 0 0.582,1.946 1.436,1.436 0 0 0 1.977,-0.472 l 1.103,-1.91 a 1.436,1.436 0 0 0 -0.582,-1.95 1.53,1.53 0 0 0 -0.831,-0.207 z"
     opacity="0.15"
     id="path8" />
</svg>
